<svg xmlns="http://www.w3.org/2000/svg" xmlns:xlink="http://www.w3.org/1999/xlink" width="50" height="50" viewBox="0 0 50 50">
  <defs>
    <linearGradient id="linear-gradient" x1="-0.231" y1="-0.22" x2="1.14" y2="1.511" gradientUnits="objectBoundingBox">
      <stop offset="0" stop-color="#fe1e1e"/>
      <stop offset="1" stop-color="#e61ebe"/>
    </linearGradient>
  </defs>
  <path id="Icon_awesome-pause-circle" data-name="Icon awesome-pause-circle" d="M25.562.563a25,25,0,1,0,25,25A25,25,0,0,0,25.562.563ZM23.95,33.627a1.618,1.618,0,0,1-1.613,1.613H17.5a1.618,1.618,0,0,1-1.613-1.613V17.5A1.618,1.618,0,0,1,17.5,15.885h4.839A1.618,1.618,0,0,1,23.95,17.5Zm11.29,0a1.618,1.618,0,0,1-1.613,1.613H28.788a1.618,1.618,0,0,1-1.613-1.613V17.5a1.618,1.618,0,0,1,1.613-1.613h4.839A1.618,1.618,0,0,1,35.24,17.5Z" transform="translate(-0.563 -0.563)" fill="url(#linear-gradient)"/>
</svg>
