<svg xmlns="http://www.w3.org/2000/svg" xmlns:xlink="http://www.w3.org/1999/xlink" width="30" height="30" viewBox="0 0 30 30">
  <defs>
    <linearGradient id="linear-gradient" x1="1.249" y1="1.487" x2="-0.246" gradientUnits="objectBoundingBox">
      <stop offset="0" stop-color="#cd22f6"/>
      <stop offset="0.894" stop-color="#ff2a2a"/>
      <stop offset="1"/>
    </linearGradient>
  </defs>
  <path id="Icon_metro-volume-medium" data-name="Icon metro-volume-medium" d="M27.1,29.555a1.647,1.647,0,0,1-1.157-.471,1.587,1.587,0,0,1,0-2.273,11.121,11.121,0,0,0,0-15.91,1.587,1.587,0,0,1,0-2.273,1.658,1.658,0,0,1,2.314,0,14.282,14.282,0,0,1,0,20.455A1.646,1.646,0,0,1,27.1,29.555Zm-5.813-3.03a1.647,1.647,0,0,1-1.157-.471,1.587,1.587,0,0,1,0-2.273,6.884,6.884,0,0,0,0-9.849,1.587,1.587,0,0,1,0-2.273,1.658,1.658,0,0,1,2.314,0,10.062,10.062,0,0,1,0,14.395A1.647,1.647,0,0,1,21.287,26.524Zm-4.535,7.332a1.1,1.1,0,0,1-.772-.314L7.573,25.285H3.662a1.081,1.081,0,0,1-1.091-1.071V13.5a1.081,1.081,0,0,1,1.091-1.071H7.573L15.981,4.17a1.105,1.105,0,0,1,1.189-.232,1.071,1.071,0,0,1,.673.99V32.785a1.081,1.081,0,0,1-1.091,1.071Z" transform="translate(-2.57 -3.856)" fill="url(#linear-gradient)"/>
</svg>
