<svg xmlns="http://www.w3.org/2000/svg" xmlns:xlink="http://www.w3.org/1999/xlink" width="214.685" height="214.685" viewBox="0 0 214.685 214.685">
  <defs>
    <filter id="Ellipse_68" x="29.343" y="30.343" width="153" height="153" filterUnits="userSpaceOnUse">
      <feOffset dy="3" input="SourceAlpha"/>
      <feGaussianBlur stdDeviation="3" result="blur"/>
      <feFlood flood-opacity="0.161"/>
      <feComposite operator="in" in2="blur"/>
      <feComposite in="SourceGraphic"/>
    </filter>
    <filter id="Path_458" x="0" y="0" width="214.685" height="214.685" filterUnits="userSpaceOnUse">
      <feOffset dy="3" input="SourceAlpha"/>
      <feGaussianBlur stdDeviation="3" result="blur-2"/>
      <feFlood flood-opacity="0.161"/>
      <feComposite operator="in" in2="blur-2"/>
      <feComposite in="SourceGraphic"/>
    </filter>
  </defs>
  <g id="Group_62" data-name="Group 62" transform="translate(-296.657 -3139.658)">
    <g transform="matrix(1, 0, 0, 1, 296.66, 3139.66)" filter="url(#Ellipse_68)">
      <g id="Ellipse_68-2" data-name="Ellipse 68" transform="translate(38.34 36.34)" fill="none" stroke="rgba(255,158,43,0.29)" stroke-width="10">
        <circle cx="67.5" cy="67.5" r="67.5" stroke="none"/>
        <circle cx="67.5" cy="67.5" r="62.5" fill="none"/>
      </g>
    </g>
    <g transform="matrix(1, 0, 0, 1, 296.66, 3139.66)" filter="url(#Path_458)">
      <g id="Path_458-2" data-name="Path 458" transform="matrix(0.92, -0.39, 0.39, 0.92, 9, 64.61)" fill="none" stroke-linecap="round" stroke-dasharray="375">
        <path d="M75,0A75,75,0,1,1,0,75,75,75,0,0,1,75,0Z" stroke="none"/>
        <path d="M 75 0 C 116.4213409423828 0 150 33.57865142822266 150 75 C 150 116.4213409423828 116.4213409423828 150 75 150 C 33.57865142822266 150 0 116.4213409423828 0 75 C 0 75 0 75 0 75 C 0 74.98694610595703 0 74.9742431640625 1.52587890625e-05 74.96118927001953 C 1.52587890625e-05 74.95865631103516 1.52587890625e-05 74.95392608642578 1.52587890625e-05 74.95140075683594 C 3.0517578125e-05 74.94058990478516 3.0517578125e-05 74.93009948730469 4.57763671875e-05 74.91929626464844 C 4.57763671875e-05 74.91676330566406 4.57763671875e-05 74.91399383544922 4.57763671875e-05 74.91146850585938 C 6.103515625e-05 74.89931488037109 9.1552734375e-05 74.88606262207031 0.0001068115234375 74.87390899658203 C 0.0001068115234375 74.87138366699219 0.0001220703125 74.86549377441406 0.0001220703125 74.86296844482422 C 0.0001373291015625 74.853515625 0.000152587890625 74.84462738037109 0.00018310546875 74.83517456054688 C 0.00018310546875 74.83264923095703 0.0001983642578125 74.82527160644531 0.000213623046875 74.82274627685547 C 0.0002288818359375 74.81014251708984 0.0002593994140625 74.79798889160156 0.00030517578125 74.78539276123047 C 0.00030517578125 74.78286743164063 0.00030517578125 74.78204345703125 0.0003204345703125 74.77951812744141 C 0.0003509521484375 74.76827239990234 0.0003814697265625 74.75754547119141 0.00042724609375 74.74629974365234 C 0.0004425048828125 74.74124908447266 0.0004425048828125 74.74069213867188 0.000457763671875 74.73563385009766 C 0.0005035400390625 74.72438812255859 0.0005340576171875 74.71292114257813 0.000579833984375 74.70167541503906 C 0.0005950927734375 74.69915008544922 0.0005950927734375 74.69887542724609 0.0005950927734375 74.69634246826172 C 0.0006561279296875 74.6842041015625 0.000701904296875 74.67218780517578 0.000762939453125 74.66004180908203 C 0.0007781982421875 74.65499114990234 0.00079345703125 74.65231323242188 0.0008087158203125 74.64726257324219 C 0.0008544921875 74.63736724853516 0.0009002685546875 74.62786865234375 0.0009613037109375 74.61797332763672 C 0.0009765625 74.61292266845703 0.0009765625 74.61367797851563 0.001007080078125 74.60862731933594 C 0.001068115234375 74.59603118896484 0.001129150390625 74.58393859863281 0.0012054443359375 74.57135009765625 C 0.001220703125 74.56882476806641 0.001251220703125 74.56369781494141 0.001251220703125 74.56117248535156 C 0.001312255859375 74.55128479003906 0.001373291015625 74.54118347167969 0.001434326171875 74.53128814697266 C 0.0014495849609375 74.52876281738281 0.0014801025390625 74.52364349365234 0.001495361328125 74.5211181640625 C 0.0015716552734375 74.50852966308594 0.0016632080078125 74.49617004394531 0.001739501953125 74.48358154296875 C 0.0017547607421875 74.48105621337891 0.0017852783203125 74.47776031494141 0.001800537109375 74.47523498535156 C 0.001861572265625 74.46534729003906 0.0019378662109375 74.45461273193359 0.00201416015625 74.44472503662109 C 0.002044677734375 74.43968200683594 0.0020599365234375 74.43784332275391 0.002105712890625 74.43280029296875 C 0.0021820068359375 74.42156219482422 0.0022735595703125 74.41078186035156 0.002349853515625 74.39955139160156 C 0.00238037109375 74.39702606201172 0.00238037109375 74.39704132080078 0.0023956298828125 74.39451599121094 C 0.0024871826171875 74.38238525390625 0.002593994140625 74.36920928955078 0.0027008056640625 74.35707855224609 C 0.002716064453125 74.35455322265625 0.002777099609375 74.34805297851563 0.0027923583984375 74.34552764892578 C 0.0028839111328125 74.33609008789063 0.002960205078125 74.32630157470703 0.0030517578125 74.31686401367188 C 0.0030975341796875 74.31182098388672 0.0030975341796875 74.31089782714844 0.003143310546875 74.30584716796875 C 0.003265380859375 74.29326629638672 0.0033721923828125 74.28112030029297 0.0034942626953125 74.26854705810547 C 0.0035247802734375 74.26602172851563 0.0035552978515625 74.26245880126953 0.003570556640625 74.25993347167969 C 0.0036773681640625 74.25005340576172 0.0037841796875 74.23939514160156 0.003875732421875 74.22951507568359 C 0.00390625 74.22698974609375 0.00396728515625 74.22119903564453 0.0039825439453125 74.21868133544922 C 0.004119873046875 74.20610046386719 0.004241943359375 74.19367980957031 0.0043792724609375 74.18110656738281 C 0.0044097900390625 74.1785888671875 0.004425048828125 74.17737579345703 0.0044403076171875 74.17485809326172 C 0.0045623779296875 74.16407775878906 0.0046844482421875 74.15275573730469 0.0048065185546875 74.14197540283203 C 0.0048675537109375 74.13693237304688 0.0048675537109375 74.13620758056641 0.0049285888671875 74.13116455078125 C 0.00506591796875 74.11949157714844 0.0052032470703125 74.10726928710938 0.005340576171875 74.09559631347656 C 0.00537109375 74.09307861328125 0.005340576171875 74.09561157226563 0.00537109375 74.09309387207031 C 0.005523681640625 74.08007049560547 0.00567626953125 74.06720733642578 0.0058441162109375 74.05419158935547 C 0.0058746337890625 74.05167388916016 0.00592041015625 74.04747009277344 0.005950927734375 74.04494476318359 C 0.0060882568359375 74.03417205810547 0.0062255859375 74.02375793457031 0.0063629150390625 74.01298522949219 C 0.0063934326171875 74.01045989990234 0.006439208984375 74.00711059570313 0.0064697265625 74.00459289550781 C 0.0066375732421875 73.99201965332031 0.006805419921875 73.97922515869141 0.0069732666015625 73.96665954589844 C 0.007049560546875 73.96161651611328 0.00701904296875 73.96306610107422 0.0070953369140625 73.95803070068359 C 0.007232666015625 73.94815826416016 0.00738525390625 73.93721008300781 0.0075225830078125 73.92733764648438 C 0.0075531005859375 73.92481994628906 0.00762939453125 73.91958618164063 0.007659912109375 73.91706848144531 C 0.007843017578125 73.904052734375 0.008026123046875 73.89176940917969 0.008209228515625 73.87875366210938 C 0.0082550048828125 73.87623596191406 0.0082244873046875 73.87786865234375 0.0082550048828125 73.87535095214844 C 0.0084381103515625 73.86367797851563 0.00860595703125 73.85181427001953 0.0087890625 73.84014892578125 C 0.0088653564453125 73.83511352539063 0.008880615234375 73.83428192138672 0.0089569091796875 73.82924652099609 C 0.009124755859375 73.81803131103516 0.0092926025390625 73.80773162841797 0.00946044921875 73.79651641845703 C 0.0095062255859375 73.79399871826172 0.0095062255859375 73.79328155517578 0.009552001953125 73.79076385498047 C 0.0097503662109375 73.77820587158203 0.00994873046875 73.76564788818359 0.010162353515625 73.75308990478516 C 0.01019287109375 73.75057220458984 0.0102996826171875 73.74470520019531 0.0103302001953125 73.7421875 C 0.010498046875 73.73232269287109 0.0106658935546875 73.72259521484375 0.010833740234375 73.71273040771484 C 0.0108642578125 73.71021270751953 0.010955810546875 73.70492553710938 0.0110015869140625 73.70240783691406 C 0.011199951171875 73.69029998779297 0.0114288330078125 73.67696380615234 0.0116424560546875 73.66485595703125 C 0.011688232421875 73.66233825683594 0.011749267578125 73.65931701660156 0.0117950439453125 73.65679931640625 C 0.011962890625 73.646484375 0.0121307373046875 73.63718414306641 0.0123138427734375 73.62687683105469 C 0.0124053955078125 73.62184143066406 0.012451171875 73.61940765380859 0.012542724609375 73.61437225341797 C 0.0127716064453125 73.60182189941406 0.01300048828125 73.58972930908203 0.0132293701171875 73.57717895507813 C 0.0132293701171875 73.57717895507813 0.013275146484375 73.5748291015625 0.013275146484375 73.5748291015625 C 0.0135040283203125 73.56227874755859 0.01373291015625 73.55046081542969 0.0139617919921875 73.53791046142578 C 0.0140228271484375 73.53539276123047 0.01409912109375 73.53099060058594 0.0141448974609375 73.52847290039063 C 0.0143585205078125 73.51726531982422 0.01458740234375 73.50590515136719 0.014801025390625 73.49470520019531 C 0.014862060546875 73.4921875 0.014862060546875 73.49199676513672 0.0149078369140625 73.48947906494141 C 0.0151519775390625 73.47693634033203 0.015411376953125 73.46388244628906 0.0156707763671875 73.45133209228516 C 0.015716552734375 73.44882202148438 0.0158233642578125 73.44403076171875 0.015869140625 73.44151306152344 C 0.016082763671875 73.43120574951172 0.016326904296875 73.41970825195313 0.01654052734375 73.40940093994141 C 0.0165863037109375 73.40689086914063 0.016632080078125 73.40469360351563 0.0166778564453125 73.40217590332031 C 0.0169525146484375 73.38918304443359 0.017242431640625 73.37539672851563 0.0175323486328125 73.36241149902344 C 0.017578125 73.35989379882813 0.0175323486328125 73.36175537109375 0.0175933837890625 73.35923767089844 C 0.0178375244140625 73.34759521484375 0.0181121826171875 73.33503723144531 0.01837158203125 73.32339477539063 C 0.0184326171875 73.32087707519531 0.0185089111328125 73.31730651855469 0.0185546875 73.31478881835938 C 0.0188446044921875 73.30225372314453 0.0191192626953125 73.28989410400391 0.0193939208984375 73.27735137939453 C 0.0193939208984375 73.27735137939453 0.019439697265625 73.27504730224609 0.019439697265625 73.27504730224609 C 0.019744873046875 73.26206207275391 0.02001953125 73.24967193603516 0.02032470703125 73.23668670654297 C 0.0203857421875 73.23417663574219 0.020477294921875 73.22984313964844 0.020538330078125 73.22732543945313 C 0.0207977294921875 73.21613311767578 0.02105712890625 73.20536804199219 0.0213165283203125 73.19417572021484 C 0.0213775634765625 73.19165802001953 0.021392822265625 73.19071960449219 0.021453857421875 73.18820953369141 C 0.021759033203125 73.17522430419922 0.0220794677734375 73.16231536865234 0.0223846435546875 73.14933013916016 C 0.0224456787109375 73.14682006835938 0.02252197265625 73.14405059814453 0.0225830078125 73.14153289794922 C 0.0228424072265625 73.13079071044922 0.023101806640625 73.12036895751953 0.0233612060546875 73.10962677001953 C 0.0234222412109375 73.10711669921875 0.023529052734375 73.10273742675781 0.023590087890625 73.10022735595703 C 0.0239105224609375 73.08724975585938 0.0242462158203125 73.07413482666016 0.024566650390625 73.0611572265625 C 0.0246429443359375 73.05864715576172 0.0245513916015625 73.06192016601563 0.0246124267578125 73.05940246582031 C 0.024932861328125 73.04732513427734 0.025238037109375 73.034912109375 0.0255584716796875 73.02283477783203 C 0.0256805419921875 73.01780700683594 0.025665283203125 73.01838684082031 0.0258026123046875 73.01335906982422 C 0.026123046875 73.00083160400391 0.0264434814453125 72.98876953125 0.0267791748046875 72.97624206542969 C 0.0267791748046875 72.97624206542969 0.026824951171875 72.97457122802734 0.026824951171875 72.97457122802734 C 0.02716064453125 72.96160125732422 0.0274810791015625 72.94960021972656 0.02783203125 72.93662261962891 C 0.0279083251953125 72.93411254882813 0.028076171875 72.92752075195313 0.0281524658203125 72.92501068115234 C 0.028411865234375 72.91516876220703 0.0286865234375 72.90567016601563 0.0289459228515625 72.89582824707031 C 0.029083251953125 72.89080810546875 0.0290679931640625 72.89151763916016 0.029205322265625 72.88649749755859 C 0.0295562744140625 72.87397766113281 0.0299072265625 72.86140441894531 0.0302581787109375 72.84888458251953 C 0.03033447265625 72.84637451171875 0.030426025390625 72.84272766113281 0.0305023193359375 72.84021759033203 C 0.0308074951171875 72.82948303222656 0.0310821533203125 72.81968688964844 0.0313873291015625 72.80895233154297 C 0.031463623046875 72.80644226074219 0.0316009521484375 72.80178833007813 0.03167724609375 72.79927825927734 C 0.0320281982421875 72.78675842285156 0.03240966796875 72.77391052246094 0.03277587890625 72.76139831542969 C 0.0328369140625 72.75888824462891 0.032867431640625 72.75811004638672 0.0329437255859375 72.75559997558594 C 0.03326416015625 72.74442291259766 0.0335845947265625 72.7340087890625 0.033905029296875 72.72283172607422 C 0.0340576171875 72.71781158447266 0.034088134765625 72.71715545654297 0.0342254638671875 72.71213531494141 C 0.0345611572265625 72.70095825195313 0.0348968505859375 72.6900634765625 0.0352325439453125 72.67889404296875 C 0.035308837890625 72.67638397216797 0.0353240966796875 72.67572021484375 0.035400390625 72.67321014404297 C 0.0357818603515625 72.66069793701172 0.03619384765625 72.647705078125 0.0365753173828125 72.63518524169922 C 0.036651611328125 72.63268280029297 0.0367889404296875 72.62827301025391 0.036865234375 72.62577056884766 C 0.037200927734375 72.61504364013672 0.037506103515625 72.60521697998047 0.037841796875 72.59449005126953 C 0.037933349609375 72.59197998046875 0.03802490234375 72.58866119384766 0.038116455078125 72.58615112304688 C 0.03851318359375 72.57363891601563 0.0389251708984375 72.56029510498047 0.039337158203125 72.54778289794922 C 0.039337158203125 72.54778289794922 0.03955078125 72.54093933105469 0.03955078125 72.54093933105469 C 0.0399017333984375 72.53022003173828 0.0402679443359375 72.51862335205078 0.040618896484375 72.50790405273438 C 0.04071044921875 72.50539398193359 0.04083251953125 72.50176239013672 0.0409088134765625 72.49925231933594 C 0.041748046875 72.47379302978516 0.0426177978515625 72.44765472412109 0.0434722900390625 72.42219543457031 C 0.04364013671875 72.41718292236328 0.0436553955078125 72.41674041748047 0.0438232421875 72.41172790527344 C 0.044219970703125 72.40011596679688 0.04461669921875 72.38855743408203 0.045013427734375 72.37694549560547 C 0.04510498046875 72.37443542480469 0.0450439453125 72.37596130371094 0.045135498046875 72.37345123291016 C 0.045562744140625 72.36094665527344 0.0460357666015625 72.34728240966797 0.046478271484375 72.33477783203125 C 0.0465545654296875 72.332275390625 0.046722412109375 72.32781982421875 0.0467987060546875 72.32530975341797 C 0.0471649169921875 72.31504058837891 0.047515869140625 72.30509948730469 0.047882080078125 72.29483795166016 C 0.0479736328125 72.29232788085938 0.048126220703125 72.28804016113281 0.0482025146484375 72.28553771972656 C 0.0486602783203125 72.27303314208984 0.0490875244140625 72.26107025146484 0.049530029296875 72.24857330322266 C 0.049713134765625 72.24356079101563 0.049713134765625 72.24374389648438 0.049896240234375 72.23873138427734 C 0.050262451171875 72.22846984863281 0.050628662109375 72.21856689453125 0.050994873046875 72.20830535888672 C 0.05108642578125 72.20579528808594 0.0512542724609375 72.20111083984375 0.0513458251953125 72.1986083984375 C 0.05230712890625 72.17272186279297 0.053253173828125 72.14704132080078 0.054229736328125 72.12117004394531 C 0.0543365478515625 72.11866760253906 0.0544586181640625 72.11534881591797 0.0545501708984375 72.11284637451172 C 0.0550079345703125 72.10079956054688 0.055450439453125 72.08908081054688 0.055908203125 72.07703399658203 C 0.0560150146484375 72.07453155517578 0.0559539794921875 72.07588958740234 0.056060791015625 72.07338714599609 C 0.056549072265625 72.06045532226563 0.0570831298828125 72.04683685302734 0.057586669921875 72.03389739990234 C 0.05767822265625 72.03139495849609 0.0577392578125 72.02961730957031 0.0578460693359375 72.02711486816406 C 0.05828857421875 72.01551818847656 0.0587158203125 72.0047607421875 0.059173583984375 71.9931640625 C 0.0592803955078125 71.99066162109375 0.0593414306640625 71.98892211914063 0.0594329833984375 71.98641967773438 C 0.0599517822265625 71.97348785400391 0.06048583984375 71.96006011962891 0.061004638671875 71.94712829589844 C 0.06109619140625 71.94462585449219 0.06109619140625 71.94470977783203 0.0612030029296875 71.94220733642578 C 0.0616455078125 71.93106079101563 0.0621185302734375 71.91942596435547 0.0625762939453125 71.90827941894531 C 0.0626678466796875 71.90577697753906 0.0628509521484375 71.90126037597656 0.062957763671875 71.89875793457031 C 0.0640106201171875 71.87289428710938 0.0650787353515625 71.84706115722656 0.0661468505859375 71.82121276855469 C 0.066253662109375 71.81871032714844 0.0663909912109375 71.81552124023438 0.066497802734375 71.81301879882813 C 0.0670166015625 71.800537109375 0.0675048828125 71.7889404296875 0.068023681640625 71.77646636962891 C 0.0681304931640625 71.77396392822266 0.068023681640625 71.77659606933594 0.0681304931640625 71.77409362792969 C 0.068695068359375 71.76072692871094 0.0692596435546875 71.74750518798828 0.06982421875 71.73413848876953 C 0.0699310302734375 71.73164367675781 0.07000732421875 71.72992706298828 0.0701141357421875 71.72742462158203 C 0.07061767578125 71.71584320068359 0.07110595703125 71.70436096191406 0.0716094970703125 71.69277954101563 C 0.07171630859375 71.69027709960938 0.071746826171875 71.68977355957031 0.0718536376953125 71.68727111816406 C 0.0724334716796875 71.67390441894531 0.0730133056640625 71.66065979003906 0.0735931396484375 71.64729309082031 C 0.0737152099609375 71.64479827880859 0.073638916015625 71.646240234375 0.073760986328125 71.64374542236328 C 0.074310302734375 71.63127136230469 0.0748291015625 71.61931610107422 0.0753936767578125 71.60684967041016 C 0.07550048828125 71.60434722900391 0.0755462646484375 71.60326385498047 0.0756683349609375 71.60076141357422 C 0.0768585205078125 71.57404327392578 0.07806396484375 71.54734039306641 0.07928466796875 71.5206298828125 C 0.0793914794921875 71.51812744140625 0.0794219970703125 71.51738739013672 0.0795440673828125 71.51488494873047 C 0.080108642578125 71.50241851806641 0.0806427001953125 71.49092102050781 0.0812225341796875 71.47845458984375 C 0.0812225341796875 71.47845458984375 0.0814208984375 71.47415161132813 0.0814208984375 71.47415161132813 C 0.08203125 71.46080017089844 0.0826568603515625 71.44731140136719 0.083282470703125 71.4339599609375 C 0.083282470703125 71.4339599609375 0.083465576171875 71.43000030517578 0.083465576171875 71.43000030517578 C 0.0840606689453125 71.41754150390625 0.084625244140625 71.40553283691406 0.085205078125 71.39307403564453 C 0.0853271484375 71.39057159423828 0.0853271484375 71.39056396484375 0.08544921875 71.3880615234375 C 0.0861053466796875 71.374267578125 0.0867156982421875 71.36129760742188 0.0873870849609375 71.34750366210938 C 0.087493896484375 71.34500885009766 0.0873260498046875 71.34867095947266 0.0874481201171875 71.34617614746094 C 0.088043212890625 71.33371734619141 0.0886688232421875 71.3206787109375 0.0892791748046875 71.30821990966797 C 0.0894012451171875 71.30572509765625 0.089508056640625 71.303466796875 0.089630126953125 71.30096435546875 C 0.0908966064453125 71.27471923828125 0.092193603515625 71.24839782714844 0.0934906005859375 71.22215270996094 C 0.0936279296875 71.21965789794922 0.0937347412109375 71.21746063232422 0.0938568115234375 71.2149658203125 C 0.0944976806640625 71.20207214355469 0.0951080322265625 71.18965911865234 0.09576416015625 71.1767578125 C 0.09576416015625 71.1767578125 0.095794677734375 71.17624664306641 0.095794677734375 71.17624664306641 C 0.097198486328125 71.14823150634766 0.098602294921875 71.12046813964844 0.10003662109375 71.09246063232422 C 0.1001739501953125 71.0899658203125 0.10003662109375 71.09259033203125 0.10015869140625 71.09009552001953 C 0.1015777587890625 71.06253051757813 0.102996826171875 71.03512573242188 0.1044464111328125 71.00757598876953 C 0.1044464111328125 71.00757598876953 0.1046600341796875 71.00364685058594 0.1046600341796875 71.00364685058594 C 0.1060791015625 70.97653961181641 0.1075439453125 70.948974609375 0.1089935302734375 70.921875 C 0.109130859375 70.91938018798828 0.1090545654296875 70.92057800292969 0.10919189453125 70.91808319091797 C 0.10986328125 70.9056396484375 0.11053466796875 70.89309692382813 0.1112060546875 70.88065338134766 C 0.1112060546875 70.88065338134766 0.1114501953125 70.87625885009766 0.1114501953125 70.87625885009766 C 0.1121978759765625 70.86248779296875 0.1129302978515625 70.84898376464844 0.113677978515625 70.83521270751953 C 0.113677978515625 70.83521270751953 0.11370849609375 70.83466339111328 0.11370849609375 70.83466339111328 C 0.11444091796875 70.82133483886719 0.1151580810546875 70.80821990966797 0.11590576171875 70.79489898681641 C 0.1160430908203125 70.79240417480469 0.115997314453125 70.79322052001953 0.1161346435546875 70.79072570800781 C 0.1176605224609375 70.76319122314453 0.119140625 70.73667907714844 0.1206817626953125 70.70915222167969 C 0.1206817626953125 70.70915222167969 0.1209259033203125 70.70504760742188 0.1209259033203125 70.70504760742188 C 0.1224517822265625 70.67797088623047 0.1240386962890625 70.65001678466797 0.1255950927734375 70.62294769287109 C 0.1257476806640625 70.62045288085938 0.1256103515625 70.62271118164063 0.125762939453125 70.62022399902344 C 0.12652587890625 70.60690307617188 0.1272735595703125 70.59391021728516 0.1280517578125 70.58059692382813 C 0.1280517578125 70.58059692382813 0.1281585693359375 70.57868957519531 0.1281585693359375 70.57868957519531 C 0.1289825439453125 70.56448364257813 0.1297454833984375 70.55148315429688 0.130584716796875 70.53728485107422 C 0.130584716796875 70.53728485107422 0.130706787109375 70.53517913818359 0.130706787109375 70.53517913818359 C 0.1314544677734375 70.52230834960938 0.1322174072265625 70.50934600830078 0.1329803466796875 70.49648284912109 C 0.1331329345703125 70.49398803710938 0.1330718994140625 70.49496459960938 0.1332244873046875 70.49247741699219 C 0.134857177734375 70.46497344970703 0.136474609375 70.43784332275391 0.1381378173828125 70.41034698486328 C 0.1381378173828125 70.41034698486328 0.1383209228515625 70.40731048583984 0.1383209228515625 70.40731048583984 C 0.1399993896484375 70.37936401367188 0.1416473388671875 70.35237884521484 0.14337158203125 70.32444763183594 C 0.14337158203125 70.32444763183594 0.1434783935546875 70.32270050048828 0.1434783935546875 70.32270050048828 C 0.1442718505859375 70.30984497070313 0.145111083984375 70.29624938964844 0.145904541015625 70.28339385986328 C 0.145904541015625 70.28339385986328 0.1461181640625 70.28006744384766 0.1461181640625 70.28006744384766 C 0.147796630859375 70.25302124023438 0.1495208740234375 70.22541809082031 0.1512298583984375 70.19837951660156 C 0.1513824462890625 70.19589233398438 0.1513214111328125 70.19684600830078 0.1514892578125 70.19435882568359 C 0.1531982421875 70.16732025146484 0.1549224853515625 70.14018249511719 0.1566619873046875 70.1131591796875 C 0.1568145751953125 70.11067199707031 0.15679931640625 70.11092376708984 0.1569671630859375 70.10843658447266 C 0.1587066650390625 70.08141326904297 0.160491943359375 70.05380249023438 0.162261962890625 70.02677917480469 C 0.162261962890625 70.02677917480469 0.16241455078125 70.02459716796875 0.16241455078125 70.02459716796875 C 0.1633148193359375 70.0108642578125 0.1641693115234375 69.99767303466797 0.1650848388671875 69.98394012451172 C 0.1650848388671875 69.98394012451172 0.165130615234375 69.98326110839844 0.165130615234375 69.98326110839844 C 0.1669769287109375 69.95536041259766 0.1688079833984375 69.92780303955078 0.170684814453125 69.89991760253906 C 0.170684814453125 69.89991760253906 0.1708526611328125 69.89725494384766 0.1708526611328125 69.89725494384766 C 0.172698974609375 69.86980438232422 0.1746063232421875 69.84171295166016 0.176483154296875 69.81427001953125 C 0.1766510009765625 69.81178283691406 0.1764373779296875 69.81493377685547 0.176605224609375 69.81245422363281 C 0.179473876953125 69.77040863037109 0.1823577880859375 69.72866821289063 0.185302734375 69.6866455078125 C 0.185302734375 69.6866455078125 0.18536376953125 69.68571472167969 0.18536376953125 69.68571472167969 C 0.18731689453125 69.65784454345703 0.1892547607421875 69.63032531738281 0.1912384033203125 69.60246276855469 C 0.1912384033203125 69.60246276855469 0.1914215087890625 69.59989929199219 0.1914215087890625 69.59989929199219 C 0.1933746337890625 69.57247924804688 0.195343017578125 69.54495239257813 0.19732666015625 69.51753997802734 C 0.197509765625 69.51506042480469 0.1973724365234375 69.51689910888672 0.1975555419921875 69.51441955566406 C 0.200592041015625 69.47241973876953 0.20361328125 69.43110656738281 0.2067108154296875 69.38912200927734 C 0.2067108154296875 69.38912200927734 0.2067413330078125 69.38883972167969 0.2067413330078125 69.38883972167969 C 0.494354248046875 65.50012969970703 1.078384399414063 61.69441223144531 1.936492919921875 57.99320983886719 C 1.936492919921875 57.99320983886719 1.936676025390625 57.99238586425781 1.936676025390625 57.99238586425781 C 1.942825317382813 57.96588897705078 1.949005126953125 57.93928527832031 1.955184936523438 57.91280364990234 C 1.955184936523438 57.91280364990234 1.95562744140625 57.91085052490234 1.95562744140625 57.91085052490234 C 1.958663940429688 57.89781951904297 1.961700439453125 57.88483428955078 1.964736938476563 57.87181091308594 C 1.964736938476563 57.87181091308594 1.964767456054688 57.8717041015625 1.964767456054688 57.8717041015625 C 1.970947265625 57.84522247314453 1.977127075195313 57.81889343261719 1.98333740234375 57.79241943359375 C 1.98333740234375 57.79241943359375 1.983917236328125 57.78992462158203 1.983917236328125 57.78992462158203 C 1.990036010742188 57.76387786865234 1.996185302734375 57.73772430419922 2.002334594726563 57.71168518066406 C 2.002334594726563 57.71168518066406 2.003021240234375 57.70876312255859 2.003021240234375 57.70876312255859 C 2.006103515625 57.69573974609375 2.009048461914063 57.68326568603516 2.012130737304688 57.67024993896484 C 2.012130737304688 57.67024993896484 2.012176513671875 57.67002868652344 2.012176513671875 57.67002868652344 C 2.015350341796875 57.65659332275391 2.018386840820313 57.64379119873047 2.021575927734375 57.63035583496094 C 2.021575927734375 57.63035583496094 2.02197265625 57.62865447998047 2.02197265625 57.62865447998047 C 2.024765014648438 57.61689758300781 2.027679443359375 57.60460662841797 2.030471801757813 57.59285736083984 C 2.031036376953125 57.59049987792969 2.031204223632813 57.58975219726563 2.031768798828125 57.58739471435547 C 2.034759521484375 57.57479858398438 2.037841796875 57.56185150146484 2.040847778320313 57.54926300048828 C 2.041412353515625 57.54690551757813 2.040359497070313 57.55132293701172 2.040924072265625 57.54897308349609 C 2.043914794921875 57.53638458251953 2.046722412109375 57.52464294433594 2.049728393554688 57.51205444335938 C 2.05029296875 57.50970458984375 2.050567626953125 57.50851440429688 2.051132202148438 57.50615692138672 C 2.057052612304688 57.48140716552734 2.063064575195313 57.45630645751953 2.069000244140625 57.43155670166016 C 2.069564819335938 57.42920684814453 2.070220947265625 57.42646026611328 2.070785522460938 57.42410278320313 C 2.0736083984375 57.41236114501953 2.076187133789063 57.401611328125 2.079010009765625 57.38987731933594 C 2.079010009765625 57.38987731933594 2.07958984375 57.38750457763672 2.07958984375 57.38750457763672 C 2.082611083984375 57.37492370605469 2.08563232421875 57.36238098144531 2.088668823242188 57.34980773925781 C 2.0892333984375 57.34745025634766 2.089584350585938 57.34602355957031 2.09014892578125 57.34367370605469 C 2.092681884765625 57.33319091796875 2.095077514648438 57.32328796386719 2.097610473632813 57.31280517578125 C 2.098175048828125 57.31045532226563 2.099105834960938 57.30660247802734 2.09967041015625 57.30425262451172 C 2.102508544921875 57.29251861572266 2.105514526367188 57.28012847900391 2.108352661132813 57.26839447021484 C 2.108917236328125 57.26604461669922 2.108917236328125 57.26610565185547 2.109481811523438 57.26374816894531 C 2.112014770507813 57.25327301025391 2.1146240234375 57.24254608154297 2.117172241210938 57.23207092285156 C 2.118316650390625 57.22736358642578 2.11834716796875 57.22722625732422 2.119491577148438 57.22252655029297 C 2.12213134765625 57.21163177490234 2.1248779296875 57.20035552978516 2.127532958984375 57.18946075439453 C 2.12811279296875 57.18711090087891 2.127700805664063 57.18875122070313 2.128280639648438 57.1864013671875 C 2.131240844726563 57.17425537109375 2.1341552734375 57.16230010986328 2.137115478515625 57.15015411376953 C 2.1376953125 57.14780426025391 2.138687133789063 57.14373016357422 2.139266967773438 57.14138031005859 C 2.141616821289063 57.13175201416016 2.1439208984375 57.12232208251953 2.146270751953125 57.11268615722656 C 2.147430419921875 57.10798645019531 2.147247314453125 57.10871887207031 2.148391723632813 57.10401916503906 C 2.151260375976563 57.09230041503906 2.154098510742188 57.08075714111328 2.156967163085938 57.06903839111328 C 2.158126831054688 57.06433868408203 2.157958984375 57.06503295898438 2.159103393554688 57.06033325195313 C 2.161361694335938 57.05112457275391 2.163665771484375 57.04177856445313 2.165924072265625 57.03257751464844 C 2.16650390625 57.03022766113281 2.168014526367188 57.02410125732422 2.168594360351563 57.02175140380859 C 2.171371459960938 57.01045227050781 2.174209594726563 56.99893188476563 2.176986694335938 56.98763275146484 C 2.177566528320313 56.98528289794922 2.17852783203125 56.98136901855469 2.179107666015625 56.97901916503906 C 2.1812744140625 56.97023010253906 2.183441162109375 56.96147155761719 2.18560791015625 56.95269012451172 C 2.186767578125 56.94799041748047 2.187759399414063 56.94399261474609 2.188919067382813 56.93929290771484 C 2.191192626953125 56.93009185791016 2.193466186523438 56.92092895507813 2.19573974609375 56.91172790527344 C 2.196319580078125 56.90938568115234 2.197036743164063 56.906494140625 2.197616577148438 56.90414428710938 C 2.200424194335938 56.89285278320313 2.203216552734375 56.88160705566406 2.206008911132813 56.87031555175781 C 2.206588745117188 56.86796569824219 2.208511352539063 56.86024475097656 2.209091186523438 56.85789489746094 C 2.211166381835938 56.84953308105469 2.213104248046875 56.84178924560547 2.215179443359375 56.83342742919922 C 2.216354370117188 56.8287353515625 2.216888427734375 56.82654571533203 2.218063354492188 56.82185363769531 C 2.22076416015625 56.81098175048828 2.223617553710938 56.79955291748047 2.226318359375 56.78868865966797 C 2.227493286132813 56.78399658203125 2.228134155273438 56.78142547607422 2.22930908203125 56.7767333984375 C 2.231292724609375 56.76879119873047 2.233352661132813 56.76051330566406 2.235336303710938 56.75257110595703 C 2.23651123046875 56.74787902832031 2.237335205078125 56.74459838867188 2.238510131835938 56.73990631103516 C 2.241119384765625 56.72946166992188 2.243820190429688 56.71870422363281 2.246429443359375 56.70825958251953 C 2.247024536132813 56.70590972900391 2.248550415039063 56.69981384277344 2.2491455078125 56.69747161865234 C 2.251235961914063 56.68911743164063 2.253372192382813 56.68058776855469 2.255477905273438 56.67223358154297 C 2.25665283203125 56.66754150390625 2.2581787109375 56.66146087646484 2.259353637695313 56.65676879882813 C 2.261032104492188 56.65009307861328 2.262771606445313 56.64321136474609 2.264450073242188 56.63652801513672 C 2.266220092773438 56.62949371337891 2.267547607421875 56.62422943115234 2.269317626953125 56.61719512939453 C 2.271530151367188 56.60842895507813 2.273788452148438 56.59943389892578 2.2760009765625 56.59066772460938 C 2.277786254882813 56.58363342285156 2.278396606445313 56.58121490478516 2.280166625976563 56.57418060302734 C 2.281753540039063 56.56791687011719 2.283111572265625 56.56253051757813 2.284698486328125 56.55626678466797 C 2.286468505859375 56.54923248291016 2.287277221679688 56.54604339599609 2.2890625 56.53901672363281 C 2.291595458984375 56.52899932861328 2.29412841796875 56.51899719238281 2.296676635742188 56.50897979736328 C 2.2978515625 56.50428771972656 2.299484252929688 56.49786376953125 2.300674438476563 56.49317932128906 C 2.3023681640625 56.48650360107422 2.303878784179688 56.4805908203125 2.305572509765625 56.47391510009766 C 2.3067626953125 56.46923065185547 2.308700561523438 56.46160125732422 2.309890747070313 56.45691680908203 C 2.31158447265625 56.45024108886719 2.313308715820313 56.44345855712891 2.315017700195313 56.43678283691406 C 2.317398071289063 56.42741394042969 2.3189697265625 56.42122650146484 2.321365356445313 56.41185760498047 C 2.322967529296875 56.40560150146484 2.324661254882813 56.39891815185547 2.326263427734375 56.39266204833984 C 2.32745361328125 56.38797760009766 2.32958984375 56.379638671875 2.330780029296875 56.37495422363281 C 2.332168579101563 56.36953735351563 2.333786010742188 56.36324310302734 2.335159301757813 56.35782623291016 C 2.337554931640625 56.34845733642578 2.340835571289063 56.33563995361328 2.343246459960938 56.32627868652344 C 2.34442138671875 56.32168579101563 2.345870971679688 56.31601715087891 2.3470458984375 56.31143188476563 C 2.348846435546875 56.30441284179688 2.350341796875 56.29856872558594 2.352142333984375 56.29154968261719 C 2.353439331054688 56.28654479980469 2.354644775390625 56.28181457519531 2.355941772460938 56.27680969238281 C 2.357742309570313 56.26979064941406 2.358932495117188 56.26512908935547 2.360748291015625 56.25810241699219 C 2.36224365234375 56.25226593017578 2.363693237304688 56.24665069580078 2.365188598632813 56.24082183837891 C 2.368209838867188 56.22911834716797 2.370361328125 56.22077178955078 2.373382568359375 56.20907592773438 C 2.374557495117188 56.20449066162109 2.375732421875 56.19995880126953 2.376907348632813 56.19537353515625 C 2.37872314453125 56.1883544921875 2.380401611328125 56.18189239501953 2.3822021484375 56.17487335205078 C 2.3831787109375 56.17111968994141 2.38427734375 56.16685485839844 2.38525390625 56.16310882568359 C 2.388885498046875 56.14907073974609 2.391647338867188 56.13836669921875 2.395294189453125 56.12433624267578 C 2.396148681640625 56.12100982666016 2.397125244140625 56.11724853515625 2.397994995117188 56.11391448974609 C 2.399810791015625 56.10690307617188 2.401809692382813 56.09918212890625 2.403640747070313 56.09217071533203 C 2.404617309570313 56.08842468261719 2.405548095703125 56.08480072021484 2.406524658203125 56.0810546875 C 2.410781860351563 56.06468963623047 2.41473388671875 56.04946899414063 2.41900634765625 56.03310394287109 C 2.419113159179688 56.03269195556641 2.41925048828125 56.03215026855469 2.419357299804688 56.03173065185547 C 2.421188354492188 56.02471923828125 2.423507690429688 56.01586151123047 2.425323486328125 56.00885009765625 C 2.42608642578125 56.00593566894531 2.427001953125 56.00244903564453 2.427764892578125 55.99953460693359 C 2.429595947265625 55.99252319335938 2.43212890625 55.98280334472656 2.4339599609375 55.97579193115234 C 2.434066772460938 55.97537994384766 2.434036254882813 55.97550964355469 2.43414306640625 55.97509765625 C 2.43841552734375 55.958740234375 2.442672729492188 55.94249725341797 2.44696044921875 55.9261474609375 C 2.447830200195313 55.92282104492188 2.448638916015625 55.91976928710938 2.449508666992188 55.91643524169922 C 2.45196533203125 55.90709686279297 2.4530029296875 55.90313720703125 2.4554443359375 55.893798828125 C 2.456100463867188 55.89130401611328 2.457015991210938 55.88785552978516 2.457672119140625 55.88536071777344 C 2.461959838867188 55.86901092529297 2.466049194335938 55.85346221923828 2.470367431640625 55.83712005615234 C 2.4705810546875 55.83628845214844 2.470626831054688 55.83612823486328 2.470840454101563 55.83529663085938 C 2.473297119140625 55.82595825195313 2.474929809570313 55.81978607177734 2.477386474609375 55.81044769287109 C 2.477935791015625 55.80837249755859 2.47869873046875 55.80553436279297 2.479248046875 55.80345153808594 C 2.48602294921875 55.77777862548828 2.493148803710938 55.75081634521484 2.499954223632813 55.72514343261719 C 2.50018310546875 55.72431182861328 2.500503540039063 55.72307586669922 2.500732421875 55.72224426269531 C 2.676467895507813 55.05953216552734 2.860244750976563 54.40335083007813 3.053543090820313 53.74797821044922 C 4.34088134765625 49.40074157714844 8.321441650390625 46.58539581298828 12.63751220703125 46.58539581298828 C 13.57328796386719 46.58539581298828 14.525634765625 46.71794891357422 15.46881103515625 46.99592590332031 C 20.76634216308594 48.55726623535156 23.79518890380859 54.11746215820313 22.23384857177734 59.4150390625 C 20.75157165527344 64.44438171386719 20 69.68791961669922 20 75 C 20 105.3271179199219 44.67288208007813 130 75 130 C 105.3271179199219 130 130 105.3271179199219 130 75 C 130 44.67288208007813 105.3271179199219 20 75 20 C 69.47715759277344 20 65 15.52284240722656 65 10 C 65 4.477157592773438 69.47715759277344 0 75 0 C 75 0 75 0 75 0 Z" stroke="none" fill="rgba(255,171,71,0.86)"/>
      </g>
    </g>
  </g>
</svg>
