<svg xmlns="http://www.w3.org/2000/svg" width="56.954" height="252.543" viewBox="0 0 56.954 252.543">
  <g id="Group_91" data-name="Group 91" transform="translate(-1031.383 -982.236)">
    <path id="Path_448" data-name="Path 448" d="M5748.88,1056.779c-2.758,0,19.711-40.076,16.188-79.367s-22.375-36.371-23.73-80.81,15.942-92.367,19.464-92.367-16.036,53.059-11.923,97.5,22.6,40.237,22.6,79.527S5751.638,1056.779,5748.88,1056.779Z" transform="translate(-4696 178)" fill="#7bc678"/>
    <path id="Path_449" data-name="Path 449" d="M5756.372,1056.779c-2.709,0,19.9-19.39,26.528-46.9s4.359-33.054,0-62.161-16.033-32.284-19.159-52.294-.226-42.492,2.484-42.492-.219,23.316,5.409,42.492,10.576,17.644,15.787,43.908,6.414,24.667,2.96,56.172S5759.082,1056.779,5756.372,1056.779Z" transform="translate(-4704 178)" fill="#7bc678"/>
    <path id="Path_450" data-name="Path 450" d="M5741.263,1056.779c1.6,0,8.466-19.527,10.743-31.907s5.313-22.247,1.519-35.915S5737.33,966.51,5733,941.5s4.97-53.392,3.207-52.59-9.275,27.578-7.352,52.59,17.457,39.117,19.734,51.641a46.667,46.667,0,0,1,0,17.457c-.358,1.707-.96,9.422-2.792,20.968S5739.659,1056.779,5741.263,1056.779Z" transform="translate(-4735.831 479.257) rotate(-3)" fill="#7bc678"/>
  </g>
</svg>
