<svg xmlns="http://www.w3.org/2000/svg" width="116.368" height="352.549" viewBox="0 0 116.368 352.549">
  <g id="Group_57" data-name="Group 57" transform="translate(-419.065 -974.137)">
    <path id="Path_425" data-name="Path 425" d="M5061.606,870.848c15.234,2.254,31.943,17.967,31.943,17.967s10.343,12.64,2.144,13.6-23.987-3.885-37.243-13.6S5046.372,868.594,5061.606,870.848Z" transform="translate(-4622.884 399.711)" fill="#7bc678"/>
    <path id="Path_427" data-name="Path 427" d="M5061.606,870.848c15.234,2.254,31.943,17.967,31.943,17.967s10.343,12.64,2.144,13.6-23.987-3.885-37.243-13.6S5046.372,868.594,5061.606,870.848Z" transform="translate(-4612.993 371.696)" fill="#7bc678"/>
    <path id="Path_428" data-name="Path 428" d="M5061.606,870.848c15.234,2.254,31.943,17.967,31.943,17.967s10.343,12.64,2.144,13.6-23.987-3.885-37.243-13.6S5046.372,868.594,5061.606,870.848Z" transform="translate(-4612.993 339.705)" fill="#7bc678"/>
    <path id="Path_429" data-name="Path 429" d="M5061.606,870.848c15.234,2.254,31.943,17.967,31.943,17.967s10.343,12.64,2.144,13.6-23.987-3.885-37.243-13.6S5046.372,868.594,5061.606,870.848Z" transform="translate(-4619.391 304.119)" fill="#7bc678"/>
    <path id="Path_430" data-name="Path 430" d="M5061.606,870.848c15.234,2.254,31.943,17.967,31.943,17.967s10.343,12.64,2.144,13.6-23.987-3.885-37.243-13.6S5046.372,868.594,5061.606,870.848Z" transform="translate(-4630.217 268.533)" fill="#7bc678"/>
    <path id="Path_431" data-name="Path 431" d="M5061.606,870.848c15.234,2.254,31.943,17.967,31.943,17.967s10.343,12.64,2.144,13.6-23.987-3.885-37.243-13.6S5046.372,868.594,5061.606,870.848Z" transform="translate(-4630.217 236.542)" fill="#7bc678"/>
    <path id="Path_432" data-name="Path 432" d="M5061.606,870.848c15.234,2.254,31.943,17.967,31.943,17.967s10.343,12.64,2.144,13.6-23.987-3.885-37.243-13.6S5046.372,868.594,5061.606,870.848Z" transform="translate(-4630.217 204.551)" fill="#7bc678"/>
    <path id="Path_433" data-name="Path 433" d="M5061.606,870.848c15.234,2.254,31.943,17.967,31.943,17.967s10.343,12.64,2.144,13.6-23.987-3.885-37.243-13.6S5046.372,868.594,5061.606,870.848Z" transform="translate(-4626.772 172.559)" fill="#7bc678"/>
    <path id="Path_434" data-name="Path 434" d="M5061.606,870.848c15.234,2.254,31.943,17.967,31.943,17.967s10.343,12.64,2.144,13.6-23.987-3.885-37.243-13.6S5046.372,868.594,5061.606,870.848Z" transform="translate(-4622.884 140.568)" fill="#7bc678"/>
    <path id="Path_435" data-name="Path 435" d="M5061.606,870.848c15.234,2.254,31.943,17.967,31.943,17.967s10.343,12.64,2.144,13.6-23.987-3.885-37.243-13.6S5046.372,868.594,5061.606,870.848Z" transform="translate(-4617.422 114.068)" fill="#7bc678"/>
    <path id="Path_436" data-name="Path 436" d="M5086.53,870.848c-15.234,2.254-31.943,17.967-31.943,17.967s-10.344,12.64-2.145,13.6,23.987-3.885,37.244-13.6S5101.764,868.594,5086.53,870.848Z" transform="translate(-4576.806 415.707)" fill="#7bc678"/>
    <path id="Path_437" data-name="Path 437" d="M5086.53,870.848c-15.234,2.254-31.943,17.967-31.943,17.967s-10.344,12.64-2.145,13.6,23.987-3.885,37.244-13.6S5101.764,868.594,5086.53,870.848Z" transform="translate(-4565.979 382.958)" fill="#7bc678"/>
    <path id="Path_438" data-name="Path 438" d="M5086.53,870.848c-15.234,2.254-31.943,17.967-31.943,17.967s-10.344,12.64-2.145,13.6,23.987-3.885,37.244-13.6S5101.764,868.594,5086.53,870.848Z" transform="translate(-4563.42 350.967)" fill="#7bc678"/>
    <path id="Path_439" data-name="Path 439" d="M5086.53,870.848c-15.234,2.254-31.943,17.967-31.943,17.967s-10.344,12.64-2.145,13.6,23.987-3.885,37.244-13.6S5101.764,868.594,5086.53,870.848Z" transform="translate(-4563.42 320.115)" fill="#7bc678"/>
    <path id="Path_440" data-name="Path 440" d="M5086.53,870.848c-15.234,2.254-31.943,17.967-31.943,17.967s-10.344,12.64-2.145,13.6,23.987-3.885,37.244-13.6S5101.764,868.594,5086.53,870.848Z" transform="translate(-4573.312 294.674)" fill="#7bc678"/>
    <path id="Path_441" data-name="Path 441" d="M5086.53,870.848c-15.234,2.254-31.943,17.967-31.943,17.967s-10.344,12.64-2.145,13.6,23.987-3.885,37.244-13.6S5101.764,868.594,5086.53,870.848Z" transform="translate(-4585.484 270.614)" fill="#7bc678"/>
    <path id="Path_442" data-name="Path 442" d="M5086.53,870.848c-15.234,2.254-31.943,17.967-31.943,17.967s-10.344,12.64-2.145,13.6,23.987-3.885,37.244-13.6S5101.764,868.594,5086.53,870.848Z" transform="translate(-4585.484 241.746)" fill="#7bc678"/>
    <path id="Path_443" data-name="Path 443" d="M5086.53,870.848c-15.234,2.254-31.943,17.967-31.943,17.967s-10.344,12.64-2.145,13.6,23.987-3.885,37.244-13.6S5101.764,868.594,5086.53,870.848Z" transform="translate(-4580.645 209.755)" fill="#7bc678"/>
    <path id="Path_444" data-name="Path 444" d="M5086.53,870.848c-15.234,2.254-31.943,17.967-31.943,17.967s-10.344,12.64-2.145,13.6,23.987-3.885,37.244-13.6S5101.764,868.594,5086.53,870.848Z" transform="translate(-4577.2 177.764)" fill="#7bc678"/>
    <path id="Path_445" data-name="Path 445" d="M5086.53,870.848c-15.234,2.254-31.943,17.967-31.943,17.967s-10.344,12.64-2.145,13.6,23.987-3.885,37.244-13.6S5101.764,868.594,5086.53,870.848Z" transform="translate(-4573.312 146.059)" fill="#7bc678"/>
    <path id="Path_446" data-name="Path 446" d="M5086.53,870.848c-15.234,2.254-31.943,17.967-31.943,17.967s-10.344,12.64-2.145,13.6,23.987-3.885,37.244-13.6S5101.764,868.594,5086.53,870.848Z" transform="translate(-4569.375 116.449)" fill="#7bc678"/>
    <path id="Path_426" data-name="Path 426" d="M5221.655,835.759c-1.095-5.241-21.225,89.452-21.225,147.6s18.588,39.011,21.225,84.987-23.518,89.853-15.234,90.149,23.8-44.173,23.8-90.149-21.583-44.4-22.312-76.9S5222.75,841,5221.655,835.759Z" transform="translate(-4739.355 168.191)" fill="#528e50"/>
    <path id="Path_447" data-name="Path 447" d="M25.013-4.743c-10.5,3.184-23.519,13.6-23.519,13.6s-8.389,7.968-2.984,7.389S15.082,11.054,25.1,4.232,35.513-7.927,25.013-4.743Z" transform="matrix(0.616, -0.788, 0.788, 0.616, 469.867, 1003.445)" fill="#7bc678"/>
  </g>
</svg>
