<svg xmlns="http://www.w3.org/2000/svg" width="221.198" height="160.74" viewBox="0 0 221.198 160.74">
  <g id="Group_54" data-name="Group 54" transform="matrix(0.995, -0.105, 0.105, 0.995, -1095.472, -513.825)">
    <path id="Path_412" data-name="Path 412" d="M8143.216,580.765s-24.435-77.284-39.778-93.2-7.388,33.243-21.594,29.55-21.31-39.494-35.232-44.325-.853,26.424-20.458,25-45.177-30.686-57.963-30.686,10.229,23.015,6.819,30.686-15.343-4.83-20.458,0,4.546,11.081,0,19.321-23.3,5.967-18.184,13.638,34.1,9.092,38.642,17.048-29.55,11.081-20.458,14.775,45.461-7.387,56.827,0-22.446,25-11.365,29.55,41.767-15.059,55.689-11.365-21.878,26.14,0,26.14S8143.216,580.765,8143.216,580.765Z" transform="translate(-6902 180)" fill="#34d4e6"/>
    <path id="Path_413" data-name="Path 413" d="M8140.448,571.266s-87.613-36.717-128.887-51.37-41.182-6.408-41.182-6.408a713.582,713.582,0,0,1,77.911,29.687c39.509,18,85.094,41.495,85.094,41.495l9.832-3.8Z" transform="translate(-6902 180)" fill="#41228e"/>
  </g>
</svg>
