<svg xmlns="http://www.w3.org/2000/svg" width="76.94" height="111.249" viewBox="0 0 76.94 111.249">
  <g id="Group_55" data-name="Group 55" transform="translate(-579.634 -313.312)">
    <path id="Path_414" data-name="Path 414" d="M7488.911,194.529a454.315,454.315,0,0,1,29-42.83c16.31-21.1,25.4-18.5,27.646-18.048s14.848,9.264,12.792,20.734-8.422,13.24-16.9,28.675-3.654,17.2-12.334,35.733-22.65,27.162-34.72,25.587-18.729-26.469-5.481-49.85" transform="translate(-6902 180)" fill="#fe744f"/>
    <path id="Path_415" data-name="Path 415" d="M7491.517,243.234s.108-8.9,14.205-34.812,40-67.276,42.184-68.819,2.636.739,1.96,1.174-26.879,41.3-41.156,67.646-14.943,36.565-14.943,36.565Z" transform="translate(-6905.17 178.018)" fill="#b45136"/>
  </g>
</svg>
