<svg xmlns="http://www.w3.org/2000/svg" width="346" height="285" viewBox="0 0 346 285">
  <g id="leaf-yellow" transform="translate(0 0)">
    <path id="Path_410" data-name="Path 410" d="M345.248,45.84c3.942-5.292-6.974-24.191-47.91-37.5S219.317.861,204.093,4.068,179.007,4.5,157.351.647s-36.236,11.119-32.805,29.294,1.072,18.816-33.235,26.942-74.4,20.1-61.965,63.933-2.359,37.42-13.937,46.828-24.761,39.607-6,59.87c10.292,11.12,19.624,17.828,18.01,31.22-2.366,19.646,1.073,30.362,16.082,24.8s22.942-24.162,25.515-38.275,7.078-21.14,33.878-20.1c15.683.61,23.923-15.555,26.286-28.16,1.551-8.277-1.583-15.843-1.2-22.088,1.287-20.955,15.19-17.042,40.1-24.8,27.445-8.553,32.59-32.715,31.948-53.884s3.469-63.086,43.495-70.344c20.713-3.756,51.01,3.647,70.416,11.075,18.094,6.925,25.83,13.99,31.317,8.883Z" fill="#ff9e2b"/>
    <path id="Path_411" data-name="Path 411" d="M40.851,279l4.549,1.512S49.807,216.2,74.617,155.2c26.76-65.8,71.439-104.035,115.53-125.988C130.032,54.865,97.38,91.177,68.155,152.89,36.655,219.406,40.851,279,40.851,279Z" fill="#d77d13"/>
  </g>
</svg>
