<svg xmlns="http://www.w3.org/2000/svg" width="334.5" height="291.569" viewBox="0 0 334.5 291.569">
  <g id="Group_115" data-name="Group 115" transform="translate(-51.171 -1644.634)">
    <g id="Group_111" data-name="Group 111" transform="translate(147.106 1644.634)">
      <path id="Path_1307" data-name="Path 1307" d="M-1359.37,1813.185l119.233,3.815-145.625,36.277-73.806,19.018-19.134-4.441Z" transform="translate(1478.702 -1580.726)" fill="#ccbdb7"/>
      <path id="Path_1277" data-name="Path 1277" d="M-86.984,24.228l12.907-3.074L61.85,24.614l-.011,232.468L-77.753,232.473Z" transform="translate(98.364 -21.153)" fill="#f8b12e"/>
      <path id="Path_1279" data-name="Path 1279" d="M8.987,3.329,143.152,8.663l.036,230.091L110.942,250.93-2.243,222.822-3.847,6.35Z" transform="translate(15.284 -3.242)" fill="#f2f2f2"/>
      <path id="Path_1278" data-name="Path 1278" d="M0,0,114.849,9.592V246.739L0,221.147Z" transform="translate(11.373 3.074)" fill="#f8b12e"/>
      <path id="Path_1280" data-name="Path 1280" d="M.191-10.535,32.522-17.81l.244,230.258L.3,224.579Z" transform="translate(125.932 23.214)" fill="#dbdbdb"/>
      <line id="Line_4" data-name="Line 4" y2="234.355" transform="translate(129.17 12.179)" fill="none" stroke="#c5c5c5" stroke-width="1"/>
      <line id="Line_5" data-name="Line 5" y2="234.355" transform="translate(132.089 11.185)" fill="none" stroke="#c5c5c5" stroke-width="1"/>
      <line id="Line_6" data-name="Line 6" y2="233.361" transform="translate(135.008 10.688)" fill="none" stroke="#c5c5c5" stroke-width="1"/>
      <path id="Path_1281" data-name="Path 1281" d="M-.081,1.677l.034,233.055" transform="translate(138.391 8.354)" fill="none" stroke="#c5c5c5" stroke-width="1"/>
      <line id="Line_8" data-name="Line 8" y2="232.864" transform="translate(140.846 9.198)" fill="none" stroke="#c5c5c5" stroke-width="1"/>
      <line id="Line_9" data-name="Line 9" y2="232.143" transform="translate(143.765 8.925)" fill="none" stroke="#c5c5c5" stroke-width="1"/>
      <line id="Line_10" data-name="Line 10" y2="231.646" transform="translate(146.684 8.428)" fill="none" stroke="#c5c5c5" stroke-width="1"/>
      <line id="Line_11" data-name="Line 11" y2="231.646" transform="translate(149.602 7.435)" fill="none" stroke="#c5c5c5" stroke-width="1"/>
      <line id="Line_12" data-name="Line 12" y2="231.149" transform="translate(152.104 6.938)" fill="none" stroke="#c5c5c5" stroke-width="1"/>
      <line id="Line_13" data-name="Line 13" y2="230.652" transform="translate(154.606 6.441)" fill="none" stroke="#c5c5c5" stroke-width="1"/>
      <line id="Line_14" data-name="Line 14" y2="230.541" transform="translate(157.108 5.559)" fill="none" stroke="#c5c5c5" stroke-width="1"/>
    </g>
    <g id="Group_113" data-name="Group 113" transform="translate(105.457 1664.87)">
      <path id="Path_1277-2" data-name="Path 1277" d="M-86.984,24.228l12.907-3.074L61.85,24.614l-.011,232.468L-77.753,232.473Z" transform="translate(86.991 -21.153)" fill="#014e7e"/>
      <path id="Path_1279-2" data-name="Path 1279" d="M8.987,3.329,143.152,8.663l.036,230.091L110.942,250.93-2.243,222.822-3.847,6.35Z" transform="translate(3.911 -3.242)" fill="#f2f2f2"/>
      <path id="Path_1278-2" data-name="Path 1278" d="M0,0,114.849,9.592V246.739L0,221.147Z" transform="translate(0 3.074)" fill="#014e7e"/>
      <path id="Path_1280-2" data-name="Path 1280" d="M.191-10.535,32.522-17.81l.244,230.258L.3,224.579Z" transform="translate(114.559 23.214)" fill="#dbdbdb"/>
      <line id="Line_4-2" data-name="Line 4" y2="234.355" transform="translate(117.797 12.179)" fill="none" stroke="#c5c5c5" stroke-width="1"/>
      <line id="Line_5-2" data-name="Line 5" y2="234.355" transform="translate(120.716 11.185)" fill="none" stroke="#c5c5c5" stroke-width="1"/>
      <line id="Line_6-2" data-name="Line 6" y2="233.361" transform="translate(123.635 10.688)" fill="none" stroke="#c5c5c5" stroke-width="1"/>
      <path id="Path_1281-2" data-name="Path 1281" d="M-.081,1.677l.034,233.055" transform="translate(127.018 8.354)" fill="none" stroke="#c5c5c5" stroke-width="1"/>
      <line id="Line_8-2" data-name="Line 8" y2="232.864" transform="translate(129.473 9.198)" fill="none" stroke="#c5c5c5" stroke-width="1"/>
      <line id="Line_9-2" data-name="Line 9" y2="232.143" transform="translate(132.392 8.925)" fill="none" stroke="#c5c5c5" stroke-width="1"/>
      <line id="Line_10-2" data-name="Line 10" y2="231.646" transform="translate(135.31 8.428)" fill="none" stroke="#c5c5c5" stroke-width="1"/>
      <line id="Line_11-2" data-name="Line 11" y2="231.646" transform="translate(138.229 7.435)" fill="none" stroke="#c5c5c5" stroke-width="1"/>
      <line id="Line_12-2" data-name="Line 12" y2="231.149" transform="translate(140.731 6.938)" fill="none" stroke="#c5c5c5" stroke-width="1"/>
      <line id="Line_13-2" data-name="Line 13" y2="230.652" transform="translate(143.233 6.441)" fill="none" stroke="#c5c5c5" stroke-width="1"/>
      <line id="Line_14-2" data-name="Line 14" y2="230.541" transform="translate(145.735 5.559)" fill="none" stroke="#c5c5c5" stroke-width="1"/>
    </g>
    <g id="Group_114" data-name="Group 114" transform="translate(51.171 1686.371)">
      <path id="Path_1277-3" data-name="Path 1277" d="M-86.984,24.228l12.907-3.074L61.85,24.614l-.011,232.468L-77.753,232.473Z" transform="translate(86.991 -21.153)" fill="#4cb782"/>
      <path id="Path_1279-3" data-name="Path 1279" d="M8.987,3.329,143.152,8.663l.036,230.091L110.942,250.93-2.243,222.822-3.847,6.35Z" transform="translate(3.911 -3.242)" fill="#f2f2f2"/>
      <path id="Path_1278-3" data-name="Path 1278" d="M0,0,114.849,9.592V246.739L0,221.147Z" transform="translate(0 3.074)" fill="#4cb782"/>
      <path id="Path_1280-3" data-name="Path 1280" d="M.191-10.535,32.522-17.81l.244,230.258L.3,224.579Z" transform="translate(114.559 23.214)" fill="#dbdbdb"/>
      <line id="Line_4-3" data-name="Line 4" y2="234.355" transform="translate(117.797 12.179)" fill="none" stroke="#c5c5c5" stroke-width="1"/>
      <line id="Line_5-3" data-name="Line 5" y2="234.355" transform="translate(120.716 11.185)" fill="none" stroke="#c5c5c5" stroke-width="1"/>
      <line id="Line_6-3" data-name="Line 6" y2="233.361" transform="translate(123.635 10.688)" fill="none" stroke="#c5c5c5" stroke-width="1"/>
      <path id="Path_1281-3" data-name="Path 1281" d="M-.081,1.677l.034,233.055" transform="translate(127.018 8.354)" fill="none" stroke="#c5c5c5" stroke-width="1"/>
      <line id="Line_8-3" data-name="Line 8" y2="232.864" transform="translate(129.473 9.198)" fill="none" stroke="#c5c5c5" stroke-width="1"/>
      <line id="Line_9-3" data-name="Line 9" y2="232.143" transform="translate(132.392 8.925)" fill="none" stroke="#c5c5c5" stroke-width="1"/>
      <line id="Line_10-3" data-name="Line 10" y2="231.646" transform="translate(135.31 8.428)" fill="none" stroke="#c5c5c5" stroke-width="1"/>
      <line id="Line_11-3" data-name="Line 11" y2="231.646" transform="translate(138.229 7.435)" fill="none" stroke="#c5c5c5" stroke-width="1"/>
      <line id="Line_12-3" data-name="Line 12" y2="231.149" transform="translate(140.731 6.938)" fill="none" stroke="#c5c5c5" stroke-width="1"/>
      <line id="Line_13-3" data-name="Line 13" y2="230.652" transform="translate(143.233 6.441)" fill="none" stroke="#c5c5c5" stroke-width="1"/>
      <line id="Line_14-3" data-name="Line 14" y2="230.541" transform="translate(145.735 5.559)" fill="none" stroke="#c5c5c5" stroke-width="1"/>
    </g>
  </g>
</svg>
