<svg xmlns="http://www.w3.org/2000/svg" width="18.249" height="21.953" viewBox="0 0 18.249 21.953">
  <path id="Icon_awesome-shopping-bag" data-name="Icon awesome-shopping-bag" d="M14.338,6.86V5.488A5.362,5.362,0,0,0,9.124,0,5.362,5.362,0,0,0,3.91,5.488V6.86H0V18.523a3.348,3.348,0,0,0,3.259,3.43H14.99a3.348,3.348,0,0,0,3.259-3.43V6.86ZM6.517,5.488A2.681,2.681,0,0,1,9.124,2.744a2.681,2.681,0,0,1,2.607,2.744V6.86H6.517Zm6.517,5.145A1.03,1.03,0,1,1,14.013,9.6,1,1,0,0,1,13.035,10.634Zm-7.821,0a1.03,1.03,0,0,1,0-2.058,1.03,1.03,0,0,1,0,2.058Z" fill="#ff7241"/>
</svg>
