<svg xmlns="http://www.w3.org/2000/svg" width="120.41" height="120.882" viewBox="0 0 120.41 120.882">
  <g id="Group_109" data-name="Group 109" transform="translate(-1240.275 -3.35)">
    <path id="Path_1304" data-name="Path 1304" d="M-342.155,26.5c1.183-8.637-5.8-17.865-21.3-19.4s-40.7,13.251-40.7,13.251,20.468,19.758,35.967,21.3S-343.339,35.138-342.155,26.5Z" transform="translate(1665.093 3.941)" fill="#fea78a"/>
    <path id="Path_1305" data-name="Path 1305" d="M-342.155,26.5c1.183-8.637-5.8-17.865-21.3-19.4s-40.7,13.251-40.7,13.251,20.468,19.758,35.967,21.3S-343.339,35.138-342.155,26.5Z" transform="matrix(-0.035, -0.999, 0.999, -0.035, 1292.394, -279.428)" fill="#fea78a"/>
    <path id="Path_1306" data-name="Path 1306" d="M-335.665,30.968c1.183-8.637-13.967-24.1-29.466-25.643s-39.02,15.025-39.02,15.025,20.05,23.405,37.172,26.06S-336.848,39.6-335.665,30.968Z" transform="translate(1506.823 -213.629) rotate(-48)" fill="#fea78a"/>
    <path id="Path_1301" data-name="Path 1301" d="M-359.692,66.566S-380.206,81.2-401.279,87.085s-44.759,3.505-44.759,3.505,21.466,3.224,43.845-2.034,42.5-20.12,42.5-20.12Z" transform="translate(1720.376 -63.216)" fill="#767d76"/>
    <path id="Path_1302" data-name="Path 1302" d="M-445.316,66.6s17.466,13.436,37.009,18.714S-366.8,88.46-366.8,88.46s-19.907,2.892-40.66-1.824S-448.6,67.18-448.6,67.18Z" transform="matrix(-0.174, 0.985, -0.985, -0.174, 1348.377, 483.161)" fill="#767d76"/>
    <path id="Path_1303" data-name="Path 1303" d="M-393.74,71.937c-.524-.738,95.76-71.6,95.76-71.6V5.2S-393.216,72.675-393.74,71.937Z" transform="translate(1658.665 15.511)" fill="#767d76"/>
  </g>
</svg>
