<svg id="Group_109" data-name="Group 109" xmlns="http://www.w3.org/2000/svg" width="120.409" height="120.882" viewBox="0 0 120.409 120.882">
  <path id="Path_1304" data-name="Path 1304" d="M-404.022,26.5c-1.183-8.637,5.8-17.865,21.3-19.4s40.7,13.251,40.7,13.251-20.468,19.758-35.966,21.3S-402.839,35.138-404.022,26.5Z" transform="translate(441.769 0.591)" fill="#fea78a"/>
  <path id="Path_1305" data-name="Path 1305" d="M61.995,15.334c1.183,8.637-5.8,17.865-21.3,19.4S0,21.486,0,21.486,20.468,1.728,35.967.19,60.812,6.7,61.995,15.334Z" transform="matrix(0.035, -0.999, 0.999, 0.035, 12.376, 119.666)" fill="#fea78a"/>
  <path id="Path_1306" data-name="Path 1306" d="M68.486,15.9C69.669,24.533,54.519,40,39.02,41.539S0,26.515,0,26.515,20.05,3.11,37.172.455,67.3,7.26,68.486,15.9Z" transform="translate(89.464 114.722) rotate(-132)" fill="#fea78a"/>
  <path id="Path_1301" data-name="Path 1301" d="M-446.038,66.566s20.514,14.635,41.587,20.519,44.758,3.505,44.758,3.505-21.466,3.224-43.845-2.034-42.5-20.12-42.5-20.12Z" transform="translate(446.038 -66.566)" fill="#767d76"/>
  <path id="Path_1302" data-name="Path 1302" d="M3.279,22.736S20.746,9.3,40.289,4.022,81.8.878,81.8.878,61.889-2.014,41.136,2.7,0,22.158,0,22.158Z" transform="matrix(0.174, 0.985, -0.985, 0.174, 22.391, 22.518)" fill="#767d76"/>
  <path id="Path_1303" data-name="Path 1303" d="M-297.982,71.937c.524-.738-95.76-71.6-95.76-71.6V5.2S-298.506,72.675-297.982,71.937Z" transform="translate(393.742 12.16)" fill="#767d76"/>
</svg>
