<svg xmlns="http://www.w3.org/2000/svg" width="22" height="22" viewBox="0 0 22 22">
  <path id="Icon_awesome-bars" data-name="Icon awesome-bars" d="M.786,8.26H21.214a.847.847,0,0,0,.786-.9V5.117a.847.847,0,0,0-.786-.9H.786a.847.847,0,0,0-.786.9V7.362A.847.847,0,0,0,.786,8.26Zm0,8.98H21.214a.847.847,0,0,0,.786-.9V14.1a.847.847,0,0,0-.786-.9H.786A.847.847,0,0,0,0,14.1v2.245A.847.847,0,0,0,.786,17.239Zm0,8.98H21.214a.847.847,0,0,0,.786-.9V23.076a.847.847,0,0,0-.786-.9H.786a.847.847,0,0,0-.786.9v2.245A.847.847,0,0,0,.786,26.219Z" transform="translate(0 -4.219)" fill="#ff7241"/>
</svg>
