<svg xmlns="http://www.w3.org/2000/svg" width="40" height="40" viewBox="0 0 40 40">
  <path id="Icon_ionic-ios-star" data-name="Icon ionic-ios-star" d="M40.732,17.221H27.6L23.607,4.394a1.413,1.413,0,0,0-2.714,0L16.9,17.221H3.679A1.491,1.491,0,0,0,2.25,18.76a1.214,1.214,0,0,0,.027.26,1.507,1.507,0,0,0,.6,1.087L13.67,28.3,9.527,41.269A1.614,1.614,0,0,0,10.018,43a1.335,1.335,0,0,0,.8.375,1.674,1.674,0,0,0,.893-.346L22.25,34.942l10.536,8.087a1.6,1.6,0,0,0,.893.346A1.24,1.24,0,0,0,34.473,43a1.594,1.594,0,0,0,.491-1.731L30.821,28.3l10.705-8.269.259-.24a1.664,1.664,0,0,0,.464-1.029A1.566,1.566,0,0,0,40.732,17.221Z" transform="translate(-2.25 -3.375)" fill="#ffc300"/>
</svg>
